<?xml version="1.0" encoding="UTF-8" standalone="no"?>
<!DOCTYPE svg PUBLIC "-//W3C//DTD SVG 1.1//EN" "http://www.w3.org/Graphics/SVG/1.1/DTD/svg11.dtd">
<svg width="100%" height="100%" viewBox="0 0 318 203" version="1.1" xmlns="http://www.w3.org/2000/svg" xmlns:xlink="http://www.w3.org/1999/xlink" xml:space="preserve" xmlns:serif="http://www.serif.com/" style="fill-rule:evenodd;clip-rule:evenodd;">
    <g transform="matrix(1,0,0,1,-12063.686848,-2654.616348)">
        <g transform="matrix(4.166667,0,0,4.166667,0,0)">
            <g id="Black-S" transform="matrix(1,0,0,1,2886.55,696)">
                <path d="M46.875,-11.426C49.902,-11.475 52.197,-12.549 54.736,-15.039L81.397,-42.383C83.154,-44.141 83.936,-46.143 83.936,-48.633C83.936,-53.662 79.785,-57.861 74.853,-57.861C72.363,-57.861 70.019,-56.836 68.066,-54.785L45.996,-31.592L47.9,-31.592L25.684,-54.785C23.73,-56.787 21.387,-57.861 18.848,-57.861C13.916,-57.861 9.766,-53.662 9.766,-48.633C9.766,-46.191 10.596,-44.19 12.305,-42.383L39.014,-15.039C41.553,-12.5 43.897,-11.426 46.875,-11.426Z" style="fill-rule:nonzero;stroke:black;stroke-width:0.5px;"/>
            </g>
        </g>
    </g>
</svg>
