<?xml version="1.0" encoding="UTF-8"?>
<svg width="1024" height="1024" viewBox="0 0 1024 1024" fill="none" xmlns="http://www.w3.org/2000/svg">
  <rect width="1024" height="1024" rx="220" fill="#F8F8F8"/>
  <path d="M512 707C480 707 456 696 430 670L248 484C230 466 222 445 222 420C222 368 265 325 316 325C342 325 366 336 386 356L512 488L638 356C658 336 682 325 708 325C759 325 802 368 802 420C802 445 794 466 776 484L594 670C568 696 544 707 512 707Z" fill="#111111"/>
  <path d="M512 512C480 512 456 501 430 475L248 289C230 271 222 250 222 225C222 173 265 130 316 130C342 130 366 141 386 161L512 293L638 161C658 141 682 130 708 130C759 130 802 173 802 225C802 250 794 271 776 289L594 475C568 501 544 512 512 512Z" fill="#111111" fill-opacity="0.66"/>
  <path d="M512 902C480 902 456 891 430 865L248 679C230 661 222 640 222 615C222 563 265 520 316 520C342 520 366 531 386 551L512 683L638 551C658 531 682 520 708 520C759 520 802 563 802 615C802 640 794 661 776 679L594 865C568 891 544 902 512 902Z" fill="#111111" fill-opacity="0.36"/>
</svg>
